<svg width="64" height="65" viewBox="0 0 64 65" fill="none" xmlns="http://www.w3.org/2000/svg">
<g id="Bebas Korosi">
<path id="Subtract" fill-rule="evenodd" clip-rule="evenodd" d="M16 0.615112C7.16344 0.615112 0 7.77856 0 16.6151V48.6151C0 57.4517 7.16344 64.6151 16 64.6151H48C56.8366 64.6151 64 57.4517 64 48.6151V16.6151C64 7.77856 56.8366 0.615112 48 0.615112H16ZM18.9869 43.3351C19.3869 44.0551 19.7869 44.7751 20.2669 45.4151C22.1869 43.4951 22.8269 40.6151 21.5469 38.3751C20.2669 36.1351 19.6269 33.8951 19.9469 31.3351C20.5869 27.4951 22.5069 24.6151 25.7069 22.6951C27.3069 21.7351 29.2269 21.0951 31.4669 21.0951C34.3469 21.0951 36.2669 19.1751 36.9069 16.9351V16.6151H36.5869H22.5069C22.3709 16.6151 22.2927 16.6151 22.2232 16.6397C22.1291 16.6729 22.0509 16.7511 21.8669 16.9351L21.8669 16.9351C18.9869 22.0551 16.1069 27.1751 12.9069 32.2951V32.9351C13.7069 34.3751 14.5069 35.7351 15.3069 37.0951L15.307 37.0953C16.107 38.4553 16.9069 39.8152 17.7069 41.2551C18.1869 41.8951 18.5869 42.6151 18.9869 43.3351L18.9869 43.3351ZM49.5486 33.7351C49.7086 33.4951 49.8686 33.2551 50.0286 32.9351C50.0286 32.6151 49.7086 32.2951 49.7086 32.2951C48.7486 30.6951 48.1086 29.4151 47.4686 27.8151C46.3486 26.0551 45.3086 24.2151 44.2686 22.3751C43.2286 20.5351 42.1886 18.6951 41.0686 16.9351C40.8846 16.7511 40.8064 16.6729 40.7123 16.6397C40.6427 16.6151 40.5646 16.6151 40.4286 16.6151H39.1486C39.0249 16.6151 38.949 16.6151 38.9025 16.6521C38.8286 16.7107 38.8286 16.8625 38.8286 17.2551V17.2551C38.8286 18.5351 38.1886 20.1351 37.2286 21.0951L35.9486 22.3751C41.0686 24.6151 43.3086 28.7751 42.9886 34.5351C44.9086 33.5751 46.8286 33.5751 49.0686 34.5351C49.2286 34.2151 49.3886 33.9751 49.5485 33.7351L49.5486 33.7351L49.5486 33.7351ZM31.4682 23.3352C36.5882 23.3352 40.7481 27.4952 40.7481 32.6152C40.7481 37.7352 36.5882 41.8952 31.4682 41.8952C26.3482 41.8952 22.1882 37.7352 22.1882 32.6152C22.1882 27.4952 26.3482 23.3352 31.4682 23.3352ZM24.7481 32.6152C24.7481 36.1352 27.6282 39.3352 31.4682 39.3352C34.9882 39.3352 38.1882 36.4552 38.1882 32.6152C37.8681 29.0952 34.9882 26.2152 31.4682 26.2152C27.6282 26.2152 24.7481 29.0952 24.7481 32.6152ZM24.4298 41.8951C24.1098 44.1351 23.1498 46.0551 21.2298 47.3351C21.3898 47.4951 21.4698 47.6551 21.5498 47.8151C21.6298 47.9751 21.7098 48.1351 21.8698 48.2951C21.8698 48.6151 22.1898 48.6151 22.5098 48.6151H39.4698H40.4298H40.7498C40.9098 48.4551 41.0698 48.2151 41.2298 47.9751L41.2298 47.9751L41.2298 47.975C41.3898 47.735 41.5498 47.4951 41.7098 47.3351C39.7898 46.0551 38.8298 44.1351 38.5098 41.8951C34.0298 45.0951 29.2298 45.0951 24.4298 41.8951ZM42.6666 45.4149C40.7466 44.1349 39.7866 40.9349 41.3866 38.3749C42.9866 35.8149 45.8666 35.1749 48.1066 36.1349C47.1466 37.7349 46.2666 39.2549 45.3866 40.7749L45.3865 40.7751C44.5065 42.2951 43.6265 43.815 42.6666 45.4149Z" fill="#D42027"/>
</g>
</svg>
