<svg width="26" height="27" viewBox="0 0 26 27" fill="none" xmlns="http://www.w3.org/2000/svg">
<g id="Asset 2" clip-path="url(#clip0_2486_7098)">
<g id="Layer 2">
<g id="Layer 1">
<path id="Vector" d="M16.1404 0.72998C16.3342 0.807199 16.4956 0.948688 16.5976 1.13074C16.6995 1.3128 16.7358 1.52436 16.7004 1.72998C16.7004 9.62998 16.7004 17.5233 16.7004 25.41C16.7175 25.555 16.6957 25.7019 16.6371 25.8356C16.5785 25.9693 16.4852 26.0849 16.367 26.1706C16.2488 26.2562 16.1098 26.3087 15.9645 26.3227C15.8192 26.3366 15.6728 26.3115 15.5404 26.25C13.6304 25.58 11.7004 24.96 9.78038 24.32C9.60503 24.2775 9.45088 24.1732 9.34618 24.0263C9.24149 23.8793 9.19328 23.6996 9.21038 23.52C9.21038 16.8533 9.21038 10.21 9.21038 3.58998C9.1782 3.39666 9.22297 3.19842 9.3351 3.0377C9.44724 2.87697 9.61783 2.76652 9.81038 2.72998L15.4904 0.82998L15.7404 0.72998H16.1404ZM12.9504 6.01998C12.7515 6.01998 12.5607 6.099 12.42 6.23965C12.2794 6.3803 12.2004 6.57107 12.2004 6.76998C12.2004 6.96889 12.2794 7.15966 12.42 7.30031C12.5607 7.44096 12.7515 7.51998 12.9504 7.51998C13.1529 7.50971 13.3437 7.42197 13.4833 7.27492C13.6229 7.12786 13.7006 6.93275 13.7004 6.72998C13.6834 6.54054 13.5978 6.36383 13.4597 6.23308C13.3216 6.10232 13.1405 6.02654 12.9504 6.01998ZM13.7004 13.51C13.693 13.3134 13.6116 13.127 13.4725 12.9879C13.3334 12.8488 13.1469 12.7674 12.9504 12.76C12.8453 12.7478 12.7388 12.758 12.6379 12.7898C12.5371 12.8217 12.4441 12.8746 12.3651 12.9449C12.2861 13.0153 12.2229 13.1016 12.1796 13.1981C12.1363 13.2946 12.1139 13.3992 12.1139 13.505C12.1139 13.6108 12.1363 13.7154 12.1796 13.8119C12.2229 13.9084 12.2861 13.9947 12.3651 14.065C12.4441 14.1354 12.5371 14.1883 12.6379 14.2201C12.7388 14.252 12.8453 14.2622 12.9504 14.25C13.146 14.245 13.3324 14.1658 13.4718 14.0283C13.6111 13.8909 13.6928 13.7055 13.7004 13.51ZM12.9504 20.99C13.0991 20.99 13.2445 20.9457 13.3681 20.8629C13.4916 20.78 13.5877 20.6623 13.6442 20.5246C13.7007 20.387 13.7149 20.2357 13.6852 20.0899C13.6554 19.9442 13.583 19.8106 13.4771 19.7061C13.3712 19.6016 13.2366 19.531 13.0905 19.5032C12.9443 19.4754 12.7932 19.4917 12.6564 19.55C12.5195 19.6083 12.4031 19.706 12.3219 19.8306C12.2407 19.9553 12.1984 20.1012 12.2004 20.25C12.2079 20.4455 12.2897 20.6309 12.429 20.7683C12.5683 20.9058 12.7547 20.985 12.9504 20.99Z" fill="#D32027"/>
<path id="Vector_2" d="M25.7801 13.7304C25.6301 13.9104 25.5001 14.1104 25.3301 14.2804C24.7601 14.8704 24.1701 15.4504 23.5901 16.0304C23.4787 16.1526 23.3301 16.2345 23.1673 16.2634C23.0046 16.2923 22.8368 16.2667 22.6901 16.1904C22.5541 16.1276 22.4418 16.0228 22.3698 15.8914C22.2978 15.76 22.2699 15.6089 22.2901 15.4604C22.3322 15.2762 22.4179 15.1047 22.5401 14.9604C22.7579 14.7249 22.9883 14.5012 23.2301 14.2904H22.9501H20.6001C20.495 14.3026 20.3886 14.2925 20.2877 14.2606C20.1868 14.2287 20.0938 14.1759 20.0148 14.1055C19.9358 14.0351 19.8726 13.9489 19.8293 13.8523C19.7861 13.7558 19.7637 13.6512 19.7637 13.5454C19.7637 13.4397 19.7861 13.3351 19.8293 13.2385C19.8726 13.142 19.9358 13.0557 20.0148 12.9854C20.0938 12.915 20.1868 12.8622 20.2877 12.8303C20.3886 12.7984 20.495 12.7882 20.6001 12.8004H23.2201L22.5101 12.0804C22.4176 11.9901 22.3504 11.8771 22.3151 11.7527C22.2798 11.6283 22.2778 11.4969 22.3091 11.3714C22.3405 11.246 22.4042 11.131 22.4938 11.0378C22.5835 10.9446 22.696 10.8766 22.8201 10.8404C22.9419 10.7938 23.0745 10.7831 23.2022 10.8097C23.3298 10.8363 23.4471 10.899 23.5401 10.9904C24.2301 11.6704 24.9201 12.3604 25.6001 13.0604C25.6748 13.1492 25.7386 13.2465 25.7901 13.3504L25.7801 13.7304Z" fill="#D32027"/>
<path id="Vector_3" d="M21.7304 6.26971C21.4704 6.01971 21.2604 5.81971 21.0604 5.60971C20.9737 5.54445 20.9021 5.46141 20.8502 5.36617C20.7983 5.27093 20.7675 5.16569 20.7596 5.05753C20.7518 4.94936 20.7672 4.84077 20.8048 4.73905C20.8424 4.63734 20.9014 4.54485 20.9777 4.4678C21.054 4.39076 21.146 4.33094 21.2473 4.29237C21.3487 4.2538 21.4571 4.23737 21.5654 4.24418C21.6736 4.25099 21.7791 4.28088 21.8749 4.33186C21.9706 4.38283 22.0543 4.4537 22.1204 4.53971L24.0104 6.42971C24.0981 6.50096 24.1689 6.5909 24.2175 6.69297C24.2661 6.79504 24.2913 6.90666 24.2913 7.01971C24.2913 7.13275 24.2661 7.24438 24.2175 7.34644C24.1689 7.44851 24.0981 7.53845 24.0104 7.60971L22.1304 9.47971C22.0632 9.56222 21.9797 9.62992 21.8851 9.67855C21.7905 9.72718 21.6869 9.75569 21.5807 9.76226C21.4745 9.76884 21.3681 9.75335 21.2683 9.71677C21.1684 9.68018 21.0772 9.6233 21.0004 9.54971C20.9253 9.47364 20.8672 9.38262 20.8297 9.28257C20.7923 9.18252 20.7763 9.0757 20.7829 8.96907C20.7895 8.86244 20.8186 8.75841 20.8681 8.66375C20.9176 8.56909 20.9865 8.48593 21.0704 8.41971L21.7104 7.77971H19.1104C18.9114 7.77971 18.7207 7.70069 18.58 7.56004C18.4394 7.41938 18.3604 7.22862 18.3604 7.02971C18.3604 6.83079 18.4394 6.64003 18.58 6.49938C18.7207 6.35872 18.9114 6.27971 19.1104 6.27971L21.7304 6.26971Z" fill="#D32027"/>
<path id="Vector_4" d="M21.6506 20.73H19.0406C18.9355 20.7422 18.829 20.732 18.7281 20.7001C18.6273 20.6683 18.5343 20.6154 18.4553 20.5451C18.3763 20.4747 18.3131 20.3884 18.2698 20.2919C18.2265 20.1954 18.2041 20.0908 18.2041 19.985C18.2041 19.8792 18.2265 19.7746 18.2698 19.6781C18.3131 19.5816 18.3763 19.4953 18.4553 19.4249C18.5343 19.3546 18.6273 19.3017 18.7281 19.2698C18.829 19.238 18.9355 19.2278 19.0406 19.24H21.6506V19.18L21.0306 18.58C20.9446 18.5139 20.8737 18.4302 20.8227 18.3345C20.7717 18.2388 20.7418 18.1333 20.735 18.025C20.7282 17.9168 20.7447 17.8083 20.7832 17.707C20.8218 17.6056 20.8816 17.5137 20.9587 17.4374C21.0357 17.361 21.1282 17.3021 21.2299 17.2645C21.3316 17.2269 21.4402 17.2114 21.5484 17.2193C21.6565 17.2271 21.7618 17.258 21.857 17.3098C21.9523 17.3617 22.0353 17.4334 22.1006 17.52L23.9706 19.39C24.0601 19.4612 24.1325 19.5516 24.1822 19.6547C24.2319 19.7577 24.2577 19.8706 24.2577 19.985C24.2577 20.0994 24.2319 20.2123 24.1822 20.3153C24.1325 20.4184 24.0601 20.5088 23.9706 20.58C23.3506 21.21 22.7206 21.84 22.0806 22.46C22.0119 22.5337 21.9291 22.5928 21.8371 22.6338C21.7451 22.6748 21.6458 22.6968 21.5451 22.6986C21.4444 22.7004 21.3444 22.6818 21.251 22.6441C21.1576 22.6064 21.0727 22.5503 21.0015 22.479C20.9303 22.4078 20.8742 22.323 20.8364 22.2296C20.7987 22.1362 20.7802 22.0362 20.782 21.9355C20.7837 21.8348 20.8058 21.7355 20.8468 21.6435C20.8878 21.5515 20.9469 21.4687 21.0206 21.4C21.2206 21.19 21.4406 20.99 21.6506 20.79V20.73Z" fill="#D32027"/>
<path id="Vector_5" d="M4.70996 7.52002C4.51105 7.52002 4.32028 7.441 4.17963 7.30035C4.03898 7.1597 3.95996 6.96893 3.95996 6.77002C3.95996 6.57111 4.03898 6.38034 4.17963 6.23969C4.32028 6.09904 4.51105 6.02002 4.70996 6.02002C4.90887 6.02002 5.09964 6.09904 5.24029 6.23969C5.38094 6.38034 5.45996 6.57111 5.45996 6.77002C5.45996 6.96893 5.38094 7.1597 5.24029 7.30035C5.09964 7.441 4.90887 7.52002 4.70996 7.52002Z" fill="#D32027"/>
<path id="Vector_6" d="M0.970078 10.2601C0.767187 10.2601 0.572607 10.1795 0.429141 10.036C0.285676 9.89257 0.205078 9.69799 0.205078 9.4951C0.205078 9.29221 0.285676 9.09763 0.429141 8.95416C0.572607 8.8107 0.767187 8.7301 0.970078 8.7301C1.07516 8.7179 1.18163 8.72808 1.28251 8.75995C1.38338 8.79182 1.47637 8.84467 1.55536 8.91503C1.63436 8.98539 1.69758 9.07167 1.74087 9.16819C1.78416 9.26472 1.80654 9.36931 1.80654 9.4751C1.80654 9.58089 1.78416 9.68548 1.74087 9.782C1.69758 9.87853 1.63436 9.9648 1.55536 10.0352C1.47637 10.1055 1.38338 10.1584 1.28251 10.1902C1.18163 10.2221 1.07516 10.2323 0.970078 10.2201V10.2601Z" fill="#D32027"/>
<path id="Vector_7" d="M7.45996 11.2704C7.45996 11.3689 7.44056 11.4664 7.40287 11.5574C7.36518 11.6484 7.30994 11.7311 7.24029 11.8007C7.17065 11.8704 7.08797 11.9256 6.99697 11.9633C6.90598 12.001 6.80845 12.0204 6.70996 12.0204C6.61147 12.0204 6.51394 12.001 6.42295 11.9633C6.33195 11.9256 6.24928 11.8704 6.17963 11.8007C6.10999 11.7311 6.05474 11.6484 6.01705 11.5574C5.97936 11.4664 5.95996 11.3689 5.95996 11.2704C5.95988 11.1706 5.97997 11.0719 6.01902 10.9801C6.05807 10.8883 6.11527 10.8054 6.1872 10.7362C6.25912 10.6671 6.34428 10.6132 6.43755 10.5779C6.53083 10.5425 6.63029 10.5263 6.72996 10.5304C6.92367 10.5355 7.10787 10.6155 7.24395 10.7534C7.38004 10.8914 7.45745 11.0766 7.45996 11.2704Z" fill="#D32027"/>
<path id="Vector_8" d="M2.71042 14.2504C2.5277 14.2292 2.35915 14.1416 2.23681 14.0042C2.11447 13.8668 2.04688 13.6893 2.04688 13.5054C2.04688 13.3214 2.11447 13.1439 2.23681 13.0065C2.35915 12.8692 2.5277 12.7816 2.71042 12.7604C2.8155 12.7482 2.92197 12.7583 3.02284 12.7902C3.12372 12.8221 3.2167 12.8749 3.2957 12.9453C3.3747 13.0157 3.43792 13.1019 3.48121 13.1985C3.5245 13.295 3.54687 13.3996 3.54687 13.5054C3.54687 13.6112 3.5245 13.7157 3.48121 13.8123C3.43792 13.9088 3.3747 13.9951 3.2957 14.0654C3.2167 14.1358 3.12372 14.1886 3.02284 14.2205C2.92197 14.2524 2.8155 14.2626 2.71042 14.2504Z" fill="#D32027"/>
<path id="Vector_9" d="M7.45989 15.7303C7.4579 15.8786 7.41198 16.023 7.32792 16.1452C7.24387 16.2674 7.12547 16.362 6.98768 16.4169C6.84989 16.4718 6.69891 16.4847 6.55383 16.4538C6.40875 16.4229 6.27609 16.3497 6.17261 16.2434C6.06913 16.1372 5.99949 16.0026 5.97249 15.8567C5.94549 15.7109 5.96235 15.5603 6.02093 15.424C6.07951 15.2877 6.17718 15.1719 6.30159 15.0911C6.42601 15.0104 6.57158 14.9683 6.71989 14.9703C6.91797 14.9755 7.10618 15.0579 7.24441 15.1998C7.38264 15.3418 7.45996 15.5321 7.45989 15.7303Z" fill="#D32027"/>
<path id="Vector_10" d="M0.969999 18.2495C0.870276 18.2509 0.771303 18.2321 0.679024 18.1943C0.586746 18.1564 0.503067 18.1004 0.433014 18.0294C0.362961 17.9584 0.30798 17.874 0.271375 17.7812C0.234769 17.6884 0.217294 17.5892 0.219999 17.4895C0.221971 17.3416 0.267628 17.1976 0.351229 17.0756C0.43483 16.9536 0.552641 16.859 0.689848 16.8038C0.827054 16.7485 0.97753 16.7351 1.12235 16.7652C1.26717 16.7952 1.39987 16.8674 1.50376 16.9727C1.60765 17.078 1.6781 17.2116 1.70624 17.3568C1.73437 17.502 1.71895 17.6523 1.6619 17.7888C1.60485 17.9253 1.50873 18.0418 1.38562 18.1238C1.26251 18.2058 1.11791 18.2495 0.969999 18.2495Z" fill="#D32027"/>
<path id="Vector_11" d="M4.71023 19.4995C4.8594 19.4996 5.00518 19.5441 5.12891 19.6274C5.25264 19.7108 5.34871 19.8291 5.40484 19.9673C5.46097 20.1055 5.47461 20.2573 5.44402 20.4033C5.41342 20.5493 5.33998 20.6829 5.23308 20.787C5.12618 20.891 4.99068 20.9608 4.8439 20.9875C4.69712 21.0141 4.54573 20.9964 4.40909 20.9365C4.27244 20.8767 4.15674 20.7774 4.07679 20.6515C3.99683 20.5256 3.95625 20.3786 3.96023 20.2295C3.96544 20.0341 4.04675 19.8484 4.18685 19.7121C4.32694 19.5757 4.51473 19.4994 4.71023 19.4995Z" fill="#D32027"/>
</g>
</g>
</g>
<defs>
<clipPath id="clip0_2486_7098">
<rect width="25.56" height="25.54" fill="white" transform="translate(0.219727 0.72998)"/>
</clipPath>
</defs>
</svg>
