<svg width="27" height="23" viewBox="0 0 27 23" fill="none" xmlns="http://www.w3.org/2000/svg">
<g id="Asset 5" clip-path="url(#clip0_2486_7178)">
<g id="Layer 2">
<g id="Layer 1">
<path id="Vector" d="M17.1948 11.5501C17.1948 14.4168 17.1948 17.2868 17.1948 20.1601C17.2176 20.5667 17.1256 20.9714 16.9292 21.3281C16.7329 21.6848 16.4401 21.9791 16.0844 22.1773C15.7287 22.3755 15.3244 22.4696 14.9178 22.4489C14.5111 22.4282 14.1185 22.2934 13.7848 22.0601C11.6948 20.7401 9.58481 19.4301 7.48481 18.1301C7.30782 18.0196 7.10347 17.9607 6.89481 17.9601C5.68481 17.9601 4.48481 17.9601 3.27481 17.9601C2.84567 17.9655 2.41981 17.8848 2.0224 17.7228C1.625 17.5607 1.26412 17.3206 0.961117 17.0167C0.658113 16.7128 0.419134 16.3511 0.258311 15.9532C0.0974883 15.5553 0.0180886 15.1292 0.0248075 14.7001V8.30012C0.02082 7.87437 0.10157 7.45208 0.262356 7.05784C0.423142 6.6636 0.660751 6.30528 0.961348 6.00375C1.26195 5.70222 1.61953 5.46351 2.01327 5.30151C2.40701 5.1395 2.82905 5.05745 3.25481 5.06012C4.46481 5.06012 5.67481 5.06012 6.87481 5.06012C7.09289 5.05942 7.30687 5.00075 7.49481 4.89012C9.60481 3.55012 11.7048 2.26012 13.8048 0.950118C14.1328 0.712334 14.5225 0.574488 14.9271 0.553196C15.3316 0.531904 15.7337 0.628076 16.0848 0.830118C16.4337 1.00291 16.7246 1.27379 16.9218 1.60952C17.1189 1.94525 17.2138 2.33123 17.1948 2.72012C17.2048 5.66012 17.1948 8.60012 17.1948 11.5501ZM6.45481 7.21012H3.36481C3.2056 7.19484 3.04498 7.21478 2.89434 7.26853C2.74371 7.32228 2.60674 7.40852 2.49317 7.52114C2.3796 7.63376 2.29221 7.76999 2.23719 7.92016C2.18217 8.07034 2.16087 8.23079 2.17481 8.39012C2.17481 10.4635 2.17481 12.5301 2.17481 14.5901C2.15718 14.7529 2.17645 14.9175 2.23118 15.0718C2.2859 15.2261 2.37469 15.3661 2.49093 15.4814C2.60718 15.5967 2.7479 15.6843 2.90265 15.7377C3.05739 15.7912 3.22219 15.8091 3.38481 15.7901H6.16481H6.45481V7.21012Z" fill="#D32027"/>
<path id="Vector_2" d="M21.3547 11.4902C20.6247 10.7602 19.8947 10.0602 19.1947 9.32024C19.0025 9.12351 18.8676 8.87801 18.8047 8.61024C18.7725 8.39448 18.8118 8.17411 18.9165 7.98273C19.0212 7.79136 19.1857 7.63948 19.3847 7.55024C19.5871 7.44985 19.8161 7.41611 20.0388 7.45383C20.2616 7.49155 20.4667 7.59881 20.6247 7.76024C21.2847 8.41024 21.9347 9.07024 22.6247 9.76024C22.7047 9.85024 22.7747 9.95024 22.8647 10.0702L23.1447 9.81024L25.1447 7.81024C25.227 7.66637 25.3413 7.54337 25.4787 7.45075C25.6161 7.35813 25.773 7.29839 25.9373 7.27614C26.1015 7.25389 26.2686 7.26973 26.4257 7.32244C26.5829 7.37515 26.7258 7.46331 26.8433 7.5801C26.9609 7.69689 27.0501 7.83917 27.1038 7.99593C27.1576 8.15269 27.1746 8.31973 27.1534 8.4841C27.1323 8.64847 27.0736 8.80578 26.9819 8.94384C26.8903 9.08189 26.768 9.197 26.6247 9.28024L24.6247 11.2802L24.3847 11.5402C25.1147 12.2702 25.8447 12.9802 26.5447 13.7102C26.7345 13.9112 26.8659 14.1602 26.9247 14.4302C26.9631 14.6468 26.9291 14.87 26.8278 15.0652C26.7266 15.2604 26.5638 15.4169 26.3647 15.5102C26.1651 15.6162 25.9366 15.655 25.7132 15.6208C25.4898 15.5865 25.2834 15.4811 25.1247 15.3202C24.4547 14.6702 23.7947 14.0002 23.1247 13.3202C23.0237 13.2198 22.9332 13.1092 22.8547 12.9902C22.5047 13.3502 22.2147 13.6702 21.9047 13.9902L20.6047 15.2902C20.5098 15.4074 20.3915 15.5033 20.2573 15.572C20.1231 15.6406 19.976 15.6804 19.8255 15.6887C19.675 15.6971 19.5244 15.6739 19.3834 15.6205C19.2425 15.5672 19.1142 15.485 19.0069 15.3791C18.8996 15.2732 18.8157 15.146 18.7605 15.0058C18.7053 14.8655 18.6801 14.7152 18.6865 14.5646C18.6929 14.414 18.7307 14.2664 18.7976 14.1314C18.8645 13.9963 18.9589 13.8767 19.0747 13.7802L21.0747 11.7802C21.1847 11.6802 21.2547 11.5502 21.3547 11.4902Z" fill="#D32027"/>
</g>
</g>
</g>
<defs>
<clipPath id="clip0_2486_7178">
<rect width="26.95" height="21.9" fill="white" transform="translate(0.0249023 0.550049)"/>
</clipPath>
</defs>
</svg>
