<svg width="65" height="64" viewBox="0 0 65 64" fill="none" xmlns="http://www.w3.org/2000/svg">
<g id="icon-park-outline:info">
<g id="Group">
<path id="Vector" d="M32.5007 58.6664C36.0033 58.6709 39.4722 57.9832 42.7081 56.6428C45.9441 55.3024 48.8832 53.3357 51.3567 50.8557C53.8366 48.3823 55.8033 45.4431 57.1438 42.2072C58.4842 38.9712 59.1719 35.5023 59.1673 31.9997C59.1718 28.4971 58.4841 25.0282 57.1437 21.7923C55.8032 18.5563 53.8366 15.6172 51.3567 13.1437C48.8832 10.6637 45.9441 8.69703 42.7081 7.35661C39.4722 6.01619 36.0033 5.32849 32.5007 5.33303C28.9981 5.32856 25.5292 6.0163 22.2932 7.35671C19.0573 8.69713 16.1181 10.6638 13.6447 13.1437C11.1648 15.6172 9.1981 18.5563 7.85769 21.7923C6.51728 25.0282 5.82954 28.4971 5.83401 31.9997C5.82947 35.5023 6.51717 38.9712 7.85759 42.2072C9.198 45.4431 11.1647 48.3823 13.6447 50.8557C16.1181 53.3356 19.0573 55.3023 22.2932 56.6427C25.5292 57.9831 28.9981 58.6708 32.5007 58.6664Z" stroke="#FFC267" stroke-width="5.33333" stroke-linejoin="round"/>
<path id="Vector_2" fill-rule="evenodd" clip-rule="evenodd" d="M32.5013 14.666C33.3854 14.666 34.2332 15.0172 34.8583 15.6423C35.4834 16.2674 35.8346 17.1153 35.8346 17.9993C35.8346 18.8834 35.4834 19.7312 34.8583 20.3564C34.2332 20.9815 33.3854 21.3327 32.5013 21.3327C31.6172 21.3327 30.7694 20.9815 30.1443 20.3564C29.5192 19.7312 29.168 18.8834 29.168 17.9993C29.168 17.1153 29.5192 16.2674 30.1443 15.6423C30.7694 15.0172 31.6172 14.666 32.5013 14.666Z" fill="#FFC267"/>
<path id="Vector_3" d="M33.1667 45.3327V26.666H30.5M28.5 45.3327H37.8333" stroke="#FFC267" stroke-width="5.33333" stroke-linecap="round" stroke-linejoin="round"/>
</g>
</g>
</svg>
