<svg width="64" height="65" viewBox="0 0 64 65" fill="none" xmlns="http://www.w3.org/2000/svg">
<g id="Jaminan Kualitas">
<path id="Subtract" fill-rule="evenodd" clip-rule="evenodd" d="M16 0.615234C7.16344 0.615234 0 7.77868 0 16.6152V48.6152C0 57.4518 7.16344 64.6152 16 64.6152H48C56.8366 64.6152 64 57.4518 64 48.6152V16.6152C64 7.77868 56.8366 0.615234 48 0.615234H16ZM27.7306 26.5078C27.7306 26.0483 27.8072 25.6654 27.8838 25.2825C27.9604 24.8996 28.0369 24.5167 28.0369 24.0572C28.0369 23.7509 28.1135 23.4445 28.1901 23.1382L28.1901 23.1382C28.2667 22.8319 28.3433 22.5255 28.3433 22.2192C28.3433 22.2192 28.3433 21.9129 28.0369 21.6065L25.5863 19.1559C25.5863 19.1559 25.2799 19.1559 25.2799 18.8495C25.5863 18.8495 25.8926 18.773 26.1989 18.6964C26.5053 18.6198 26.8116 18.5432 27.1179 18.5432C27.4243 18.5432 27.8072 18.4666 28.1901 18.39C28.573 18.3135 28.9559 18.2369 29.2623 18.2369C29.5686 18.2369 29.5686 18.2369 29.8749 17.9306L31.7129 14.2546C31.7129 14.2546 31.7129 13.9482 32.0192 13.9482C32.0192 13.9482 32.0192 14.2546 32.3256 14.2546C32.4839 14.5711 32.6421 14.8672 32.7951 15.1535L32.7951 15.1535C33.2344 15.9752 33.63 16.7155 33.8572 17.6242C33.8572 17.8135 33.9742 17.8859 34.1359 17.9858C34.2359 18.0476 34.3529 18.1199 34.4699 18.2369C35.0826 18.39 35.7718 18.4666 36.461 18.5432C37.1503 18.6198 37.8395 18.6964 38.4522 18.8495L38.1459 19.1559C37.2269 19.7685 36.3079 20.6875 35.3889 21.6065C35.3889 21.7235 35.3442 21.7959 35.306 21.8576C35.2443 21.9576 35.1996 22.0299 35.3889 22.2192C35.3889 23.7508 35.6952 24.9762 36.0016 26.2015V26.5078C35.0826 26.2015 34.4699 25.8952 33.8572 25.2825C33.2446 24.9762 32.6319 24.6698 32.3256 24.6698H31.7129C30.4876 24.9762 29.2623 25.5888 28.3433 26.2015C28.1671 26.3777 28.0923 26.4525 28.0022 26.4843C27.9356 26.5078 27.8608 26.5078 27.7306 26.5078ZM14.8 26.0248L14.7999 26.0248C14.3451 26.1083 13.8392 26.2011 13.3333 26.2011C14.5586 27.4264 15.4776 28.3454 16.703 28.9581L16.703 28.9581C16.8791 29.1343 16.954 29.2091 16.9858 29.2992C17.0093 29.3657 17.0093 29.4406 17.0093 29.5708C16.8561 30.0303 16.7796 30.5663 16.703 31.1024C16.6264 31.6385 16.5498 32.1746 16.3966 32.6341C16.0903 33.2467 16.0903 33.5531 16.0903 33.8594L19.7663 32.0214H20.3789C21.6043 32.6341 22.8296 33.2467 23.7486 33.5531C23.7486 33.8594 24.0549 33.8594 24.0549 33.8594V33.5531C24.0549 32.538 23.8447 31.5229 23.5984 30.3336L23.5983 30.333C23.5473 30.0869 23.4948 29.8333 23.4423 29.5708C23.4423 29.5708 23.4423 29.2644 23.7486 29.2644C24.6676 28.3454 25.5866 27.4264 26.1992 26.5074C26.1992 26.2011 26.5056 26.2011 26.5056 26.2011H26.1992C24.9739 25.8948 23.7486 25.5884 22.8296 25.2821C22.5233 25.2821 22.2169 25.2821 22.2169 24.9758C21.9106 24.5163 21.6809 23.9802 21.4511 23.4441L21.4511 23.4441C21.2214 22.908 20.9916 22.372 20.6853 21.9125C20.6853 21.7593 20.6087 21.6827 20.5321 21.6061C20.4555 21.5296 20.3789 21.453 20.3789 21.2998C20.0726 21.2998 20.0726 21.6061 20.0726 21.6061L18.2346 25.2821L18.2346 25.2821C18.0585 25.4583 17.9836 25.5331 17.8936 25.5649C17.827 25.5884 17.7521 25.5884 17.622 25.5884C17.3156 25.5884 17.0093 25.665 16.703 25.7416C16.3966 25.8182 16.0903 25.8948 15.784 25.8948C15.5086 25.8948 15.1714 25.9567 14.8 26.0248L14.8 26.0248ZM50.4 26.2024C50.206 26.3964 49.9813 26.5904 49.7454 26.7941C49.2361 27.2337 48.6744 27.7187 48.2557 28.3467L47.3367 29.2657C47.0304 29.2657 47.0304 29.572 47.0304 29.572C47.3367 30.7974 47.643 32.329 47.643 33.5544V33.8607C47.4899 33.7075 47.3367 33.6309 47.1836 33.5544C47.0304 33.4778 46.8772 33.4012 46.724 33.248C46.2646 33.0949 45.8051 32.8651 45.3456 32.6354C44.8861 32.4056 44.4266 32.1759 43.9671 32.0227H43.3544L39.6784 33.8607C39.6784 33.5018 39.7835 33.1429 39.8706 32.8456L39.8706 32.8456C39.9322 32.6353 39.9848 32.4559 39.9848 32.329C39.9848 31.8695 40.0613 31.41 40.1379 30.9505C40.2145 30.491 40.2911 30.0315 40.2911 29.572C40.2911 29.572 40.2911 29.2657 39.9848 29.2657L37.2278 26.5087C37.2278 26.3556 37.2278 26.279 37.1895 26.2407C37.1512 26.2024 37.0746 26.2024 36.9214 26.2024C37.5341 26.0492 38.1468 25.9726 38.7594 25.8961C39.3721 25.8195 39.9848 25.7429 40.5974 25.5897C41.2101 25.5897 41.8227 25.2834 42.1291 24.6707C42.4354 23.7517 43.0481 22.8328 43.6607 21.9138C43.6607 21.9138 43.6607 21.6074 43.9671 21.6074C43.9671 21.6074 43.9671 21.9138 44.2734 21.9138C44.8861 23.1391 45.4987 24.3644 46.1114 25.2834L46.4177 25.5897C47.3367 25.5897 48.8684 25.8961 50.4 26.2024ZM39.3715 51.0152H24.055C24.055 50.5047 24.0209 49.9941 23.9869 49.4836C23.9188 48.4625 23.8507 47.4414 24.055 46.4203C24.6676 43.3569 27.4246 40.6 30.4879 40.2936H30.7943C29.5689 39.681 28.3436 39.0683 27.4246 37.843C26.5056 36.6177 26.1993 35.086 26.5056 33.5543C27.1183 30.7974 29.5689 28.9594 32.3259 29.2657C34.7766 29.2657 37.2272 31.7164 37.2272 34.167C37.5335 36.924 35.6956 39.681 32.6322 39.9873H33.2449C36.9209 40.6 39.3715 43.6633 39.3715 47.3393V51.0152ZM21.8867 50.0337C21.8377 48.3182 21.7887 46.6028 22.5239 44.8873C22.2175 44.581 21.9112 44.581 21.9112 44.581C22.2175 44.2746 22.2175 44.2746 22.5239 44.2746C22.8302 44.2746 23.1365 43.9683 23.1365 43.662C23.4429 42.743 24.0555 41.824 24.9745 40.5987C25.2808 40.2923 25.2808 39.986 25.2808 39.3733V39.067C24.9745 37.5354 23.7492 36.0037 21.9112 35.6974C20.0732 35.391 18.2352 36.31 17.3162 37.8417C16.3972 39.3733 16.3972 41.2113 17.3162 42.743C18.2352 43.662 19.1542 44.2746 20.0732 44.581C18.5416 44.8873 17.3162 45.8063 16.3972 47.0316C15.4782 48.257 15.4782 49.7886 15.4782 51.3203H21.9112C21.9112 50.8914 21.899 50.4625 21.8867 50.0337ZM43.3544 44.5818C47.0304 45.1945 48.562 48.2578 47.9494 51.3211H41.8228V48.2578C41.8228 47.7983 41.7462 47.2622 41.6696 46.7261C41.593 46.1901 41.5164 45.654 41.5164 45.1945C41.8227 45.1945 42.1291 45.1945 42.4354 44.8882C42.2822 44.8882 42.1291 44.8116 41.9759 44.735C41.8227 44.6584 41.6696 44.5818 41.5164 44.5818L41.2101 44.2755C41.0184 43.956 40.84 43.6498 40.6694 43.357L40.6691 43.3565C40.022 42.2457 39.4866 41.3267 38.7594 40.5995C38.7594 40.5995 38.4531 40.2932 38.4531 39.9869C38.4531 37.8425 39.9848 35.6982 42.4354 35.6982C44.5797 35.3919 46.7241 36.9235 47.0304 39.0679C47.643 41.5185 46.1114 43.9692 43.3544 44.5818Z" fill="#D42027"/>
</g>
</svg>
