<svg width="17" height="25" viewBox="0 0 17 25" fill="none" xmlns="http://www.w3.org/2000/svg">
<g id="Layer 2">
<g id="Layer 1">
<path id="Vector" d="M8.95725 0.824951C9.24725 0.904951 9.54725 0.964951 9.82725 1.05495C10.7717 1.39077 11.5609 2.06016 12.0463 2.93719C12.5317 3.81421 12.6799 4.83839 12.4629 5.81702C12.2459 6.79565 11.6788 7.66126 10.8683 8.25096C10.0577 8.84067 9.05953 9.11382 8.06163 9.01902C7.06374 8.92422 6.13488 8.46801 5.44985 7.73622C4.76482 7.00443 4.37083 6.04752 4.34203 5.04554C4.31323 4.04356 4.65159 3.0656 5.29346 2.29567C5.93533 1.52574 6.83644 1.01692 7.82725 0.864951C7.87026 0.872418 7.91423 0.872418 7.95725 0.864951L8.95725 0.824951Z" fill="#D32027"/>
<path id="Vector_2" d="M2.98746 15.695V17.035C3.51361 16.9667 4.04846 17.0391 4.53746 17.245C4.53746 17.245 4.53746 17.355 4.53746 17.425C4.31746 18.105 4.08746 18.785 3.87746 19.425C3.87746 19.575 3.77746 19.625 3.60746 19.595C3.41521 19.5808 3.23116 19.5113 3.07746 19.395L0.687463 17.395C0.432066 17.1921 0.249229 16.9119 0.166309 16.5965C0.0833889 16.281 0.104843 15.9472 0.227462 15.645C0.877462 14.035 1.51746 12.415 2.22746 10.815C2.34316 10.4984 2.55247 10.2246 2.82755 10.0299C3.10264 9.8352 3.43047 9.72884 3.76746 9.72496H13.1375C13.4903 9.71382 13.8376 9.8141 14.1302 10.0116C14.4228 10.209 14.6458 10.4936 14.7675 10.825C15.4375 12.435 16.0775 14.045 16.7675 15.655C16.8924 15.9519 16.9171 16.2815 16.8376 16.5938C16.7582 16.906 16.5791 17.1838 16.3275 17.385C15.4875 18.105 14.6475 18.815 13.7975 19.515C13.6342 19.6054 13.4535 19.66 13.2675 19.675C13.2675 19.675 13.1775 19.675 13.1675 19.595L12.4175 17.265C12.9048 17.0531 13.4423 16.9837 13.9675 17.065V15.705C13.4975 15.775 13.2375 15.485 12.9675 15.175C12.37 14.5506 11.6476 14.0593 10.8472 13.7333C10.0469 13.4073 9.18679 13.2539 8.32312 13.2832C7.45945 13.3125 6.61168 13.5237 5.83526 13.9031C5.05884 14.2825 4.37125 14.8216 3.81746 15.485C3.77331 15.5496 3.7134 15.6018 3.6434 15.6368C3.57341 15.6718 3.49564 15.6884 3.41746 15.685L2.98746 15.695Z" fill="#D32027"/>
<path id="Vector_3" d="M11.7475 15.9749L10.6275 16.3049L11.4175 18.7549C11.1675 18.7549 10.9475 18.7549 10.7175 18.7549C10.6575 18.7549 10.5875 18.6549 10.5575 18.5849C10.3803 18.1548 10.0753 17.7896 9.6837 17.5385C9.29211 17.2875 8.83286 17.1628 8.36808 17.1814C7.9033 17.1999 7.45544 17.3608 7.0851 17.6422C6.71476 17.9237 6.43982 18.3121 6.29748 18.7549H5.49748L6.28748 16.3149L5.16748 15.9849C6.04598 15.1248 7.22598 14.6423 8.45544 14.6404C9.68491 14.6385 10.8664 15.1175 11.7475 15.9749Z" fill="#D32027"/>
<path id="Vector_4" d="M11.8576 20.1151L12.2176 21.1951L12.9276 21.0951C12.6403 21.9037 12.137 22.6183 11.4725 23.1612C10.8079 23.7042 10.0073 24.0548 9.15761 24.1751C9.15761 24.1151 9.15761 24.0651 9.15761 24.0051C9.15761 23.2651 9.15761 22.5151 9.15761 21.7751C9.14863 21.7196 9.16125 21.6627 9.19286 21.6162C9.22448 21.5697 9.27269 21.5371 9.32761 21.5251C9.60732 21.4156 9.86164 21.2499 10.0749 21.0384C10.2882 20.8269 10.4558 20.5739 10.5676 20.2951C10.5724 20.266 10.583 20.2381 10.5988 20.2132C10.6146 20.1883 10.6352 20.1667 10.6595 20.15C10.6837 20.1332 10.7111 20.1214 10.74 20.1154C10.7689 20.1094 10.7987 20.1093 10.8276 20.1151C11.1476 20.1251 11.4876 20.1151 11.8576 20.1151Z" fill="#D32027"/>
<path id="Vector_5" d="M7.75728 21.5948V24.1748C6.90589 24.0527 6.10363 23.7017 5.43614 23.1592C4.76864 22.6168 4.26097 21.9033 3.96729 21.0948L4.68729 21.1948C4.78729 20.8848 4.89728 20.5948 4.98728 20.2948C4.98728 20.1648 5.07728 20.1048 5.21728 20.1148H6.13728C6.19728 20.1148 6.30729 20.1148 6.32729 20.2048C6.44792 20.5279 6.63877 20.8202 6.88606 21.0606C7.13335 21.3009 7.43092 21.4834 7.75728 21.5948Z" fill="#D32027"/>
<path id="Vector_6" d="M8.46736 18.5249C8.64691 18.5269 8.82185 18.5819 8.97018 18.6831C9.11851 18.7843 9.23359 18.9271 9.30093 19.0935C9.36828 19.26 9.38488 19.4426 9.34864 19.6185C9.31241 19.7943 9.22496 19.9556 9.0973 20.0818C8.96965 20.2081 8.80749 20.2938 8.63125 20.3281C8.45501 20.3624 8.27255 20.3438 8.10685 20.2746C7.94115 20.2055 7.79962 20.0888 7.70006 19.9394C7.6005 19.79 7.54737 19.6145 7.54736 19.4349C7.55 19.1926 7.64809 18.9612 7.82034 18.7908C7.99258 18.6204 8.22509 18.5249 8.46736 18.5249Z" fill="#D32027"/>
</g>
</g>
</svg>
