<svg width="22" height="27" viewBox="0 0 22 27" fill="none" xmlns="http://www.w3.org/2000/svg">
<g id="Layer 2">
<g id="Layer 1">
<path id="Vector" d="M5.49569 0.841793C7.2323 0.787365 8.93002 1.36274 10.2757 2.46179C11.337 3.36941 12.1493 4.53275 12.6357 5.84179C13.1878 7.2604 13.5249 8.75356 13.6357 10.2718C13.6957 11.0118 13.6957 11.7518 13.7857 12.4818C13.8597 13.2616 14.1419 14.0072 14.6028 14.6405C15.0637 15.2738 15.6864 15.7716 16.4057 16.0818C16.5057 16.1418 16.6457 16.1618 16.7157 16.2418C16.7688 16.2848 16.8129 16.3378 16.8455 16.3979C16.8781 16.4579 16.8986 16.5238 16.9057 16.5918C16.9057 16.7018 16.7457 16.8318 16.6357 16.8718C16.4978 16.9065 16.3535 16.9065 16.2157 16.8718L13.5357 16.5018C11.8108 16.3223 10.1314 15.8381 8.57569 15.0718C7.48122 14.4871 6.51649 13.6869 5.73966 12.7193C4.96283 11.7517 4.38999 10.6368 4.05569 9.44179C3.75614 8.34567 3.53558 7.22947 3.39569 6.10179C3.21825 4.78095 2.93399 3.47668 2.54569 2.20179C2.54569 2.05179 2.42569 1.90179 2.37569 1.75179C2.34807 1.69891 2.33329 1.64027 2.33255 1.58062C2.3318 1.52096 2.34512 1.46197 2.37141 1.40842C2.3977 1.35486 2.43623 1.30825 2.48388 1.27235C2.53153 1.23646 2.58696 1.21228 2.64569 1.20179C3.5787 0.972669 4.53502 0.851871 5.49569 0.841793Z" fill="#D32027"/>
<path id="Vector_2" d="M15.0456 20.3218L17.8456 18.6418C18.2529 18.3526 18.7108 18.1423 19.1956 18.0218C19.637 17.9563 20.088 18.0151 20.4978 18.1918C20.9076 18.3684 21.2601 18.6559 21.5156 19.0218C21.6061 19.1397 21.6692 19.2764 21.7002 19.4218C21.7312 19.5673 21.7294 19.7178 21.6949 19.8624C21.6605 20.0071 21.5942 20.1422 21.5008 20.258C21.4075 20.3738 21.2896 20.4673 21.1556 20.5318L14.9756 24.4218L12.8456 25.7718C12.5071 25.9956 12.1164 26.128 11.7116 26.156C11.3068 26.1841 10.9016 26.1068 10.5356 25.9318C8.83556 25.1718 7.12556 24.4318 5.42556 23.6818C5.26746 23.6044 5.09174 23.5701 4.91615 23.5824C4.74057 23.5947 4.57133 23.6531 4.42556 23.7518C4.01556 24.0218 3.59556 24.2818 3.17556 24.5318C2.75556 24.7818 2.64556 24.6718 2.47556 24.3318L0.355557 19.8418C0.205557 19.5118 0.265557 19.3118 0.585557 19.1518C1.90556 18.4518 3.21556 17.7318 4.58556 17.0718C5.02602 16.8416 5.51779 16.7273 6.01461 16.7395C6.51142 16.7518 6.99696 16.8902 7.42556 17.1418C7.91556 17.4018 8.42556 17.6818 8.89556 17.9618C10.2104 18.7158 11.6906 19.1347 13.2056 19.1818C13.4653 19.166 13.7255 19.2041 13.9698 19.2935C14.2142 19.383 14.4374 19.522 14.6256 19.7018C14.7785 19.8994 14.9188 20.1064 15.0456 20.3218Z" fill="#D32027"/>
<path id="Vector_3" d="M19.3455 2.35181L21.3455 2.64181C21.4117 2.64862 21.4752 2.67104 21.531 2.70722C21.5868 2.74339 21.6332 2.79229 21.6664 2.84989C21.6996 2.90749 21.7186 2.97214 21.7219 3.03854C21.7253 3.10493 21.7128 3.17117 21.6855 3.23181C21.2014 4.64696 20.8826 6.11338 20.7355 7.60181C20.5599 9.17137 19.9427 10.6589 18.9555 11.8918C18.0587 12.8651 16.9148 13.577 15.6455 13.9518C15.1555 14.1218 15.1455 14.1118 14.9155 13.6418C14.6142 13.0181 14.457 12.3345 14.4555 11.6418C14.4357 10.1946 14.2648 8.75348 13.9455 7.34181C13.8955 7.08664 13.8253 6.83585 13.7355 6.59181C13.691 6.46893 13.6751 6.33753 13.6889 6.20757C13.7028 6.07761 13.7461 5.95252 13.8155 5.84181C14.1387 5.03733 14.6495 4.32173 15.3052 3.75466C15.961 3.18759 16.7428 2.78547 17.5855 2.58181C18.1555 2.48181 18.7555 2.44181 19.3455 2.35181Z" fill="#D32027"/>
</g>
</g>
</svg>
