<svg width="22" height="27" viewBox="0 0 22 27" fill="none" xmlns="http://www.w3.org/2000/svg">
<g id="Layer 2">
<g id="Layer 1">
<path id="Vector" d="M21.5821 10.2209C21.5821 11.6409 21.6521 13.0709 21.5821 14.4809C21.5068 15.9596 21.1403 17.4089 20.5036 18.7457C19.867 20.0825 18.9727 21.2805 17.8721 22.2709C16.8721 23.1809 15.7221 23.9309 14.6421 24.7409C14.2121 25.0609 13.7721 25.3709 13.3221 25.6809C12.6582 26.1593 11.8605 26.4168 11.0421 26.4168C10.2237 26.4168 9.42609 26.1593 8.76213 25.6809C7.38212 24.6809 5.98212 23.7809 4.69212 22.6809C2.35456 20.8052 0.846464 18.087 0.492125 15.1109C0.41202 14.5578 0.371916 13.9997 0.372125 13.4409C0.372125 11.1809 0.372125 8.9209 0.372125 6.6609C0.328178 5.72965 0.6109 4.81229 1.17144 4.06734C1.73198 3.32238 2.53514 2.79662 3.44212 2.5809L9.91212 0.740901C10.61 0.530702 11.3543 0.530702 12.0521 0.740901C14.2821 1.3709 16.5121 1.9909 18.7221 2.6409C19.5668 2.88009 20.3094 3.39054 20.8353 4.09354C21.3612 4.79653 21.6412 5.65302 21.6321 6.5309V10.2309L21.5821 10.2209ZM9.88212 13.2209C9.19213 12.6609 8.53212 12.1209 7.88212 11.6009C7.75693 11.4562 7.60177 11.3405 7.42742 11.2617C7.25306 11.183 7.06366 11.143 6.87234 11.1447C6.68102 11.1464 6.49236 11.1897 6.31942 11.2715C6.14647 11.3533 5.99338 11.4718 5.87076 11.6186C5.74813 11.7655 5.65889 11.9373 5.60923 12.122C5.55956 12.3068 5.55066 12.5001 5.58313 12.6887C5.6156 12.8772 5.68867 13.0565 5.79728 13.214C5.90588 13.3715 6.04744 13.5035 6.21212 13.6009C7.21212 14.4009 8.21212 15.2009 9.16212 15.9809C9.42092 16.2056 9.75746 16.3199 10.0996 16.2994C10.4417 16.2788 10.7621 16.125 10.9921 15.8709L15.9921 10.5809C16.117 10.4554 16.2149 10.3056 16.2798 10.1409C16.3447 9.97618 16.3753 9.79993 16.3697 9.62296C16.3641 9.44599 16.3224 9.27204 16.2471 9.11176C16.1719 8.95149 16.0647 8.80827 15.9321 8.6909C15.8013 8.57228 15.648 8.4811 15.4814 8.42278C15.3147 8.36446 15.138 8.34018 14.9618 8.35137C14.7855 8.36256 14.6133 8.40899 14.4554 8.48792C14.2974 8.56686 14.1569 8.67668 14.0421 8.8109L12.2721 10.6909L9.88212 13.2209Z" fill="#D32027"/>
</g>
</g>
</svg>
