<svg width="64" height="65" viewBox="0 0 64 65" fill="none" xmlns="http://www.w3.org/2000/svg">
<g id="Iklim Tropis">
<path id="Subtract" fill-rule="evenodd" clip-rule="evenodd" d="M16 0.615112C7.16344 0.615112 0 7.77856 0 16.6151V48.6151C0 57.4517 7.16344 64.6151 16 64.6151H48C56.8366 64.6151 64 57.4517 64 48.6151V16.6151C64 7.77856 56.8366 0.615112 48 0.615112H16ZM37.2963 16.7458C37.0555 16.6753 36.85 16.6151 36.7047 16.6151H34.9503H34.5994C32.4942 16.966 30.7398 18.0186 29.3363 19.773C29.3363 19.9484 29.2485 20.0362 29.1608 20.1239C29.0731 20.2116 28.9854 20.2993 28.9854 20.4748H28.6345C25.4766 19.0713 21.9678 20.8256 21.2661 23.9835C21.2661 23.9835 21.2661 24.3344 20.9152 24.3344C18.8099 24.6853 17.0556 26.7906 17.0556 28.8958C16.7047 31.7028 19.1608 34.159 22.3187 34.159H43.0205H43.7222C47.5819 33.8081 49.6871 29.2467 47.231 26.0888C46.5293 25.0362 45.4766 24.3344 44.0731 23.9835V23.6327C43.3714 20.4748 41.617 18.0186 38.4591 16.966C38.048 16.966 37.6369 16.8456 37.2964 16.7458L37.2963 16.7458ZM39.226 46.9839V50.1418H41.3313V46.9839H41.6821C43.4365 46.633 44.4891 45.9313 45.1909 44.1769C45.724 43.3773 45.6496 42.3752 45.5831 41.4782V41.4782L45.5831 41.4782L45.5831 41.478C45.562 41.1943 45.5418 40.9211 45.5418 40.6681C44.1383 40.6681 43.0856 40.6681 42.033 41.3699C40.9804 42.4225 40.6295 43.1242 40.2786 44.5277C39.9277 41.7207 37.8225 40.3172 35.0155 40.6681V42.7734C35.0155 44.5277 36.0681 45.9313 37.4716 46.633C37.8225 46.633 38.0856 46.7207 38.3488 46.8085C38.612 46.8962 38.8751 46.9839 39.226 46.9839ZM23.3668 50.1418V46.9839C22.9557 46.9839 22.5446 46.8635 22.2041 46.7637C21.9633 46.6932 21.7577 46.633 21.6124 46.633C19.858 45.9313 19.1562 44.5277 19.1562 42.7734V40.6681C21.9633 40.3172 24.0685 41.7207 24.4194 44.5277C24.7703 43.1242 25.1212 42.0716 26.1738 41.3699C27.2264 40.6681 28.2791 40.6681 29.6826 40.6681V43.826C28.9808 45.5804 27.2264 46.633 25.472 46.9839H25.1212V50.1418H23.3668ZM22.3125 36.2647H24.4178V38.3699H22.3125V36.2647ZM43.0167 36.2647H40.9115V38.3699H43.0167V36.2647ZM16 36.2649H18.1053V38.3701H16V36.2649ZM30.7354 36.2648H28.6302V38.37H30.7354V36.2648ZM34.5938 36.2649H36.699V38.3701H34.5938V36.2649ZM49.3331 36.2647H47.2279V38.3699H49.3331V36.2647Z" fill="#D42027"/>
</g>
</svg>
