<svg width="64" height="65" viewBox="0 0 64 65" fill="none" xmlns="http://www.w3.org/2000/svg">
<g id="Menyimpan Energi">
<path id="Subtract" fill-rule="evenodd" clip-rule="evenodd" d="M16 0.615112C7.16344 0.615112 0 7.77856 0 16.6151V48.6151C0 57.4517 7.16344 64.6151 16 64.6151H48C56.8366 64.6151 64 57.4517 64 48.6151V16.6151C64 7.77856 56.8366 0.615112 48 0.615112H16ZM35.1943 16.0817C34.865 15.9994 34.5357 15.917 34.2063 15.917H31.901C31.2423 15.917 30.5837 15.917 30.2543 16.2464C28.2783 16.5757 26.3023 17.2344 24.3263 18.5517C23.997 18.7164 23.6677 18.9634 23.3384 19.2104L23.3383 19.2104C23.009 19.4574 22.6797 19.7044 22.3503 19.869C21.6917 19.5397 21.3623 19.2104 20.7037 18.5517C20.7037 19.7043 20.6214 20.7746 20.539 21.845L20.539 21.845L20.539 21.8451C20.4567 22.9154 20.3743 23.9857 20.3743 25.1384L20.3744 25.1384L20.3744 25.1383C22.6797 24.809 24.985 24.4797 26.961 23.821C26.6317 23.6564 26.3847 23.4094 26.1377 23.1624C25.8907 22.9154 25.6437 22.6684 25.3143 22.5037C26.961 21.5157 28.937 20.5277 30.913 20.1984C33.5477 19.869 35.853 20.1984 38.4877 21.1864C38.1583 20.1984 37.829 19.2104 37.829 18.2224H41.4517C39.805 17.2344 38.1583 16.5757 36.1823 16.2464C35.853 16.2464 35.5237 16.164 35.1943 16.0817ZM50.5128 35.6764C50.5951 35.347 50.6774 35.0177 50.6774 34.6884V32.383V32.0537C50.6774 31.7244 50.5951 31.395 50.5128 31.0657C50.4304 30.7364 50.3481 30.407 50.3481 30.0777C49.6894 27.7724 48.7014 25.7964 47.3841 23.8204C47.2194 23.4911 46.9724 23.1617 46.7254 22.8324L46.7254 22.8324C46.4784 22.503 46.2314 22.1737 46.0668 21.8444C46.3961 21.6797 46.6431 21.4327 46.8901 21.1857C47.1371 20.9387 47.3841 20.6917 47.7134 20.5271H40.4681C40.7974 22.5031 41.4561 24.8084 42.1148 26.7844C42.4441 26.4551 43.1028 25.7964 43.4321 25.1377C46.7254 29.0897 47.3841 33.371 45.7374 38.311L47.7134 37.323C47.7134 38.1464 47.7958 38.9697 47.8781 39.793C47.9604 40.6164 48.0428 41.4397 48.0428 42.263C49.3601 40.6164 50.0188 38.6404 50.3481 36.6644C50.3481 36.335 50.4304 36.0057 50.5128 35.6764ZM34.2054 22.5037L34.2054 22.5037L34.2054 22.5036V30.4076H40.1334C37.4988 35.3476 34.8641 39.9583 31.9001 44.5689V36.6649H26.3014C28.9361 31.725 31.5707 27.1144 34.2053 22.5038L34.2054 22.5037ZM42.4392 41.7696L42.4392 41.7696C41.3689 42.1812 40.2985 42.5929 39.1459 42.9222C39.8045 43.2516 40.4632 43.5809 40.7925 43.9102C35.8525 47.5329 30.9125 47.8622 25.6432 44.5689C25.9726 45.5569 25.9726 46.8742 25.9726 48.1916C25.4786 48.1916 25.0669 48.1092 24.6552 48.0269C24.2436 47.9446 23.8319 47.8622 23.3379 47.8622C25.9726 49.8382 28.6072 50.8262 31.5712 51.1556C36.5112 51.8142 41.1219 49.8382 44.7445 46.5449C44.8809 46.6813 45.0738 46.8177 45.2999 46.9775L45.2999 46.9775C45.6195 47.2036 46.0054 47.4764 46.3912 47.8622C46.2324 46.592 46.1502 45.3983 46.0707 44.2443L46.0707 44.2441L46.0707 44.244V44.2439C45.9853 43.0044 45.9031 41.8107 45.7325 40.6169C44.5799 40.9462 43.5097 41.3579 42.4394 41.7695L42.4392 41.7696ZM23.9987 45.8867L23.9984 45.8866L23.9982 45.8866C21.693 45.5573 19.3879 45.228 17.412 44.8987C17.6417 44.4394 18.0314 44.1403 18.3579 43.8896C18.4998 43.7808 18.6297 43.681 18.7294 43.5813C14.448 37.324 14.1187 31.0667 18.0707 24.48V27.7733C18.5647 27.6087 19.0587 27.5263 19.5527 27.444C20.0467 27.3617 20.5407 27.2793 21.0347 27.1147C18.7294 32.0547 19.0587 36.6653 22.0227 40.9467L22.6814 40.288L23.34 39.6293C23.5047 40.6173 23.587 41.6877 23.6694 42.758C23.7517 43.8283 23.834 44.8987 23.9987 45.8867Z" fill="#D42027"/>
</g>
</svg>
