<svg width="64" height="65" viewBox="0 0 64 65" fill="none" xmlns="http://www.w3.org/2000/svg">
<g id="Hemat Waktu">
<path id="Subtract" fill-rule="evenodd" clip-rule="evenodd" d="M16 0.615112C7.16344 0.615112 0 7.77856 0 16.6151V48.6151C0 57.4517 7.16344 64.6151 16 64.6151H48C56.8366 64.6151 64 57.4517 64 48.6151V16.6151C64 7.77856 56.8366 0.615112 48 0.615112H16ZM31.4106 52.7673C30.7236 52.7673 30.0365 52.7673 29.3495 52.4238C21.7918 50.7062 16.6389 46.2403 14.2342 39.0262C11.1424 29.7509 16.2954 19.445 25.2271 15.6662C27.2883 14.6356 29.693 13.9485 32.0977 13.9485H32.4412V16.3532C27.2883 16.3532 22.8224 18.4144 19.3871 22.5368C17.3259 24.9415 15.9518 28.3768 15.6083 31.812C14.9212 40.4003 20.7612 47.6144 27.6318 49.6756C35.1895 51.7367 43.4342 48.645 47.213 42.1179C51.3353 35.2473 49.9612 27.0026 44.8083 21.8497C44.8083 22.8803 44.8083 23.5673 45.1518 24.5979C44.4647 24.5979 43.7777 24.5979 42.7471 24.9415C42.7471 22.5368 42.7471 20.1321 42.4036 18.0709C44.2029 18.0709 46.0023 17.8091 48.0302 17.514L48.0324 17.5137C48.3268 17.4709 48.6259 17.4273 48.9306 17.3838C48.9306 18.0709 48.9306 18.7579 49.2742 19.7885C48.5871 19.7885 47.9 19.7885 46.8695 20.1321L47.5565 20.8191C49.9612 23.5673 51.3353 27.0026 52.0224 30.7815C52.0224 31.125 52.0224 31.812 52.3659 32.1556V34.5603V34.9038C52.0224 38.3391 50.9918 41.4309 48.9306 44.1791C45.8389 48.645 41.7165 51.3932 36.22 52.4238C35.8765 52.4238 35.533 52.5097 35.1895 52.5956L35.1895 52.5956L35.1894 52.5956C34.8459 52.6814 34.5024 52.7673 34.1589 52.7673H31.4106ZM31.4092 21.5058V24.2541H33.8139V21.5058C39.3103 21.8493 44.1198 26.6588 44.4633 32.1552H42.0586V34.5599H44.8068C44.4633 39.3693 39.6539 44.8658 33.8139 45.2093V42.8046H31.4092V45.5529C25.9127 44.8658 21.1033 40.0564 20.7598 34.5599H23.508V32.1552H20.7598C20.7598 27.0023 25.5692 21.8493 31.4092 21.5058ZM31.4092 26.3152V26.6588V32.1552C31.4092 32.1552 31.4092 32.4988 31.0656 32.4988C30.7221 33.5293 30.3786 33.8729 30.0351 34.2164C29.6915 34.3882 29.348 34.6458 29.0045 34.9035L29.0044 34.9035C28.6609 35.1611 28.3174 35.4188 27.9739 35.5905C28.1456 35.934 28.4033 36.1917 28.6609 36.4493C28.9186 36.707 29.1762 36.9646 29.348 37.3082H29.6915C31.0656 36.2776 32.4398 35.247 33.4703 33.8729L33.8139 33.5293V26.6588V26.3152H31.4092Z" fill="#D42027"/>
</g>
</svg>
